{
	"asset":{
		"generator":"Khronos glTF Blender I/O v4.2.70",
		"version":"2.0"
	},
	"scene":0,
	"scenes":[
		{
			"name":"Scene",
			"nodes":[
				0
			]
		}
	],
	"nodes":[
		{
			"extras":{
				"booleans":{}
			},
			"mesh":0,
			"name":"Cube"
		}
	],
	"materials":[
		{
			"doubleSided":true,
			"name":"Floor",
			"pbrMetallicRoughness":{
				"metallicFactor":0,
				"roughnessFactor":0.05000000074505806
			}
		},
		{
			"doubleSided":true,
			"name":"walls",
			"pbrMetallicRoughness":{
				"baseColorFactor":[
					0.800000011920929,
					0.800000011920929,
					0.800000011920929,
					1
				],
				"metallicFactor":0,
				"roughnessFactor":0.5
			}
		},
		{
			"doubleSided":true,
			"name":"roof-top",
			"pbrMetallicRoughness":{
				"baseColorFactor":[
					0.800000011920929,
					0.800000011920929,
					0.800000011920929,
					1
				],
				"metallicFactor":0,
				"roughnessFactor":0.5
			}
		}
	],
	"meshes":[
		{
			"name":"Cube.001",
			"primitives":[
				{
					"attributes":{
						"POSITION":0,
						"NORMAL":1,
						"TEXCOORD_0":2,
						"TANGENT":3
					},
					"indices":4,
					"material":0
				},
				{
					"attributes":{
						"POSITION":5,
						"NORMAL":6,
						"TEXCOORD_0":7,
						"TANGENT":8
					},
					"indices":9,
					"material":1
				},
				{
					"attributes":{
						"POSITION":10,
						"NORMAL":11,
						"TEXCOORD_0":12,
						"TANGENT":13
					},
					"indices":14,
					"material":2
				}
			]
		}
	],
	"accessors":[
		{
			"bufferView":0,
			"componentType":5126,
			"count":2512,
			"max":[
				100,
				0,
				70
			],
			"min":[
				-100,
				-1,
				-70
			],
			"type":"VEC3"
		},
		{
			"bufferView":1,
			"componentType":5126,
			"count":2512,
			"type":"VEC3"
		},
		{
			"bufferView":2,
			"componentType":5126,
			"count":2512,
			"type":"VEC2"
		},
		{
			"bufferView":3,
			"componentType":5126,
			"count":2512,
			"type":"VEC4"
		},
		{
			"bufferView":4,
			"componentType":5123,
			"count":12240,
			"type":"SCALAR"
		},
		{
			"bufferView":5,
			"componentType":5126,
			"count":912,
			"max":[
				90.19999694824219,
				10,
				60.20000076293945
			],
			"min":[
				-90.19999694824219,
				0,
				-60.20000076293945
			],
			"type":"VEC3"
		},
		{
			"bufferView":6,
			"componentType":5126,
			"count":912,
			"type":"VEC3"
		},
		{
			"bufferView":7,
			"componentType":5126,
			"count":912,
			"type":"VEC2"
		},
		{
			"bufferView":8,
			"componentType":5126,
			"count":912,
			"type":"VEC4"
		},
		{
			"bufferView":9,
			"componentType":5123,
			"count":2436,
			"type":"SCALAR"
		},
		{
			"bufferView":10,
			"componentType":5126,
			"count":398,
			"max":[
				90.19999694824219,
				10,
				60.20000076293945
			],
			"min":[
				-90.19999694824219,
				10,
				-60.20000076293945
			],
			"type":"VEC3"
		},
		{
			"bufferView":11,
			"componentType":5126,
			"count":398,
			"type":"VEC3"
		},
		{
			"bufferView":12,
			"componentType":5126,
			"count":398,
			"type":"VEC2"
		},
		{
			"bufferView":13,
			"componentType":5126,
			"count":398,
			"type":"VEC4"
		},
		{
			"bufferView":14,
			"componentType":5123,
			"count":1188,
			"type":"SCALAR"
		}
	],
	"bufferViews":[
		{
			"buffer":0,
			"byteLength":30144,
			"byteOffset":0,
			"target":34962
		},
		{
			"buffer":0,
			"byteLength":30144,
			"byteOffset":30144,
			"target":34962
		},
		{
			"buffer":0,
			"byteLength":20096,
			"byteOffset":60288,
			"target":34962
		},
		{
			"buffer":0,
			"byteLength":40192,
			"byteOffset":80384,
			"target":34962
		},
		{
			"buffer":0,
			"byteLength":24480,
			"byteOffset":120576,
			"target":34963
		},
		{
			"buffer":0,
			"byteLength":10944,
			"byteOffset":145056,
			"target":34962
		},
		{
			"buffer":0,
			"byteLength":10944,
			"byteOffset":156000,
			"target":34962
		},
		{
			"buffer":0,
			"byteLength":7296,
			"byteOffset":166944,
			"target":34962
		},
		{
			"buffer":0,
			"byteLength":14592,
			"byteOffset":174240,
			"target":34962
		},
		{
			"buffer":0,
			"byteLength":4872,
			"byteOffset":188832,
			"target":34963
		},
		{
			"buffer":0,
			"byteLength":4776,
			"byteOffset":193704,
			"target":34962
		},
		{
			"buffer":0,
			"byteLength":4776,
			"byteOffset":198480,
			"target":34962
		},
		{
			"buffer":0,
			"byteLength":3184,
			"byteOffset":203256,
			"target":34962
		},
		{
			"buffer":0,
			"byteLength":6368,
			"byteOffset":206440,
			"target":34962
		},
		{
			"buffer":0,
			"byteLength":2376,
			"byteOffset":212808,
			"target":34963
		}
	],
	"buffers":[
		{
			"byteLength":215184,
			"uri":"test_level_1-fc260700461e7c44cd90818feeddc587.bin"
		}
	]
}
