<?xml version="1.0" encoding="UTF-8" standalone="no"?>
<!-- Created with Inkscape (http://www.inkscape.org/) -->

<svg
   width="113.82768mm"
   height="11.999784mm"
   viewBox="0 0 113.82768 11.999784"
   version="1.1"
   id="svg1"
   sodipodi:docname="Bar_left_over.svg"
   xml:space="preserve"
   inkscape:version="1.3.2 (091e20e, 2023-11-25, custom)"
   xmlns:inkscape="http://www.inkscape.org/namespaces/inkscape"
   xmlns:sodipodi="http://sodipodi.sourceforge.net/DTD/sodipodi-0.dtd"
   xmlns="http://www.w3.org/2000/svg"
   xmlns:svg="http://www.w3.org/2000/svg"><sodipodi:namedview
     id="namedview1"
     pagecolor="#505050"
     bordercolor="#eeeeee"
     borderopacity="1"
     inkscape:showpageshadow="0"
     inkscape:pageopacity="0"
     inkscape:pagecheckerboard="0"
     inkscape:deskcolor="#505050"
     inkscape:document-units="mm"
     inkscape:zoom="2.0485264"
     inkscape:cx="146.20266"
     inkscape:cy="-13.91244"
     inkscape:window-width="1080"
     inkscape:window-height="1849"
     inkscape:window-x="1912"
     inkscape:window-y="-8"
     inkscape:window-maximized="1"
     inkscape:current-layer="layer1"
     showgrid="true"><inkscape:grid
       id="grid1"
       units="mm"
       originx="-2.5857863"
       originy="0.99948294"
       spacingx="0.99999998"
       spacingy="0.99999997"
       empcolor="#0099e5"
       empopacity="0.30196078"
       color="#0099e5"
       opacity="0.14901961"
       empspacing="5"
       dotted="false"
       gridanglex="30"
       gridanglez="30"
       visible="true" /></sodipodi:namedview><defs
     id="defs1" /><g
     inkscape:label="Layer 1"
     inkscape:groupmode="layer"
     id="layer1"
     transform="translate(-100.21704,-75.994266)"><path
       d="m 100.21704,75.994266 11.99978,11.999784 h 101.8279 L 202.04493,75.994266 Z m 2.41432,0.999422 h 8.99997 l 9.99991,9.999906 h -8.99997 z m 9.99991,0 h 8.99997 l 9.9999,9.999906 h -8.99996 z m 9.99991,0 h 8.99996 l 9.99991,9.999906 h -8.99997 z m 9.9999,0 h 8.99997 l 10.00042,9.999906 h -8.99996 z m 10.00043,0 h 8.99996 l 9.99991,9.999906 h -8.99997 z m 9.9999,0 h 8.99997 l 9.99991,9.999906 h -8.99997 z m 9.99991,0 h 8.99997 l 9.9999,9.999906 h -8.99997 z m 9.9999,0 h 8.99997 l 9.99991,9.999906 h -8.99997 z m 9.99991,0 h 8.99997 l 9.9999,9.999906 h -8.99996 z m 9.99991,0 h 8.99996 l 10.00043,9.999906 h -8.99997 z"
       style="fill:#ffffff"
       id="path14" /></g></svg>
